
<!-- Generator: Adobe Illustrator 14.0.0, SVG Export Plug-In . SVG Version: 6.00 Build 43363)  -->
<!DOCTYPE svg PUBLIC "-//W3C//DTD SVG 1.1//EN" "http://www.w3.org/Graphics/SVG/1.1/DTD/svg11.dtd">
<svg version="1.1" id="Layer_1" xmlns="http://www.w3.org/2000/svg" xmlns:xlink="http://www.w3.org/1999/xlink" x="0px" y="0px"
	 width="144px" height="144px" viewBox="0 0 144 144" enable-background="new 0 0 144 144" xml:space="preserve">
<circle fill="#00422b" stroke="#FFFFFF" stroke-width="4" cx="72.367" cy="72.125" r="67.875"/>
<path stroke="#FFFFFF" fill="#FFFFFF" d="M73.032,26.696c7.456,0,13.5,12.559,13.5,22.5s-6.044,13.5-13.5,13.5s-13.5-3.465-13.5-13.406
	S65.577,26.696,73.032,26.696z"/>
<path stroke="#FFFFFF" fill="#FFFFFF" d="M73.146,75.696c24.061,0,36.306,21.633,36.306,34.604c0,12.97-12.245,12.366-36.306,12.366
	s-36.533,0.718-36.533-12.253S49.085,75.696,73.146,75.696z"/>
<path stroke="#FFFFFF" fill="#FFFFFF" d="M28.989,49.188c5.811-3.355,16.173,3.714,20.647,11.462c4.473,7.748,1.364,13.242-4.447,16.597
	c-5.811,3.354-12.082,3.374-16.555-4.375C24.16,65.124,23.178,52.542,28.989,49.188z"/>
<path stroke="#FFFFFF" fill="#FFFFFF" d="M116.991,49.197c5.811,3.354,4.871,15.864,0.397,23.612c-4.474,7.748-10.787,7.802-16.598,4.447
	c-5.811-3.355-8.962-8.776-4.489-16.524C100.775,52.984,111.18,45.842,116.991,49.197z"/>
<circle stroke="#FFFFFF" fill="#FFFFFF" cx="73.032" cy="18.202" r="4.875"/>
<circle stroke="#FFFFFF" fill="#FFFFFF" cx="24.951" cy="42.533" r="4.388"/>
<circle stroke="#FFFFFF" fill="#FFFFFF" cx="121.049" cy="42.533" r="4.388"/>
</svg>
